<?xml version="1.0" encoding="iso-8859-1"?>
<!-- Uploaded to: SVG Repo, www.svgrepo.com, Generator: SVG Repo Mixer Tools -->
<svg version="1.1" id="Layer_1" xmlns="http://www.w3.org/2000/svg" xmlns:xlink="http://www.w3.org/1999/xlink" 
	 viewBox="0 0 512 512" xml:space="preserve">
<rect x="96.003" y="7.999" style="fill:#84DCCF;" width="319.999" height="495.997"/>
<circle style="fill:#FFFFFF;" cx="256.003" cy="471.999" r="32"/>
<polyline style="fill:#027EA8;" points="96,504.001 96,7.999 416,7.999 "/>
<rect x="128.096" y="39.566" style="fill:#FFFFFF;" width="255.436" height="400.498"/>
<polyline style="fill:#F2F2F2;" points="383.529,39.566 128.094,39.566 128.094,440.064 "/>
<rect x="247.93" y="464.241" style="fill:#F14507;" width="15.768" height="15.768"/>
<g>
	<rect x="351.996" y="464.241" style="fill:#FFFFFF;" width="15.768" height="15.768"/>
	<rect x="143.863" y="464.241" style="fill:#FFFFFF;" width="16.819" height="15.768"/>
</g>
<path d="M88,0v512H424V0H88z M255.999,496C242.766,496,232,485.234,232,472c0-11.609,8.285-21.318,19.253-23.527h9.491
	c10.969,2.21,19.254,11.917,19.254,23.527C280,485.234,269.234,496,255.999,496z M136.503,432.706V47.976h239.668v384.73H136.503z
	 M408,496H287.977c5.034-6.69,8.023-15.002,8.023-24c0-8.789-2.856-16.92-7.679-23.527H391.94V32.207H120.736v416.265H223.68
	c-4.823,6.608-7.679,14.739-7.679,23.527c0,8.998,2.988,17.311,8.023,24H104V16H408V496z"/>
<rect x="351.996" y="55.334" width="15.768" height="15.768"/>
<rect x="327.819" y="55.334" style="fill:#FBA218;" width="15.768" height="15.768"/>
<rect x="303.642" y="55.334" width="15.768" height="15.768"/>
<rect x="143.863" y="55.334" style="fill:#FBA218;" width="16.819" height="15.768"/>
<rect x="207.985" y="104.739" style="fill:#F14507;" width="95.657" height="15.768"/>
<rect x="160.682" y="152.042" width="71.48" height="15.768"/>
<rect x="247.93" y="152.042" style="fill:#F14507;" width="31.535" height="15.768"/>
<g>
	<rect x="296.284" y="152.042" style="fill:#FBA218;" width="55.712" height="15.768"/>
	<rect x="160.682" y="184.628" style="fill:#FBA218;" width="103.015" height="15.768"/>
</g>
<rect x="279.465" y="184.628" width="72.531" height="15.768"/>
<rect x="160.682" y="216.164" width="39.945" height="15.768"/>
<g>
	<rect x="216.394" y="216.164" style="fill:#F14507;" width="135.602" height="15.768"/>
	<rect x="160.682" y="247.699" style="fill:#F14507;" width="63.07" height="15.768"/>
</g>
<rect x="240.571" y="247.699" width="111.425" height="15.768"/>
<rect x="160.682" y="280.285" width="103.015" height="15.768"/>
<rect x="279.465" y="280.285" style="fill:#FBA218;" width="72.531" height="15.768"/>
<rect x="160.682" y="311.821" style="fill:#F14507;" width="23.126" height="15.768"/>
<rect x="200.627" y="311.821" width="151.369" height="15.768"/>
<rect x="160.682" y="343.356" style="fill:#FBA218;" width="191.314" height="15.768"/>
<rect x="160.682" y="375.942" style="fill:#F14507;" width="47.303" height="15.768"/>
<g>
	<rect x="351.996" y="408.529" style="fill:#FBA218;" width="15.768" height="15.768"/>
	<rect x="143.863" y="408.529" style="fill:#FBA218;" width="16.819" height="15.768"/>
</g>
</svg>